<?xml version="1.0" encoding="UTF-8" standalone="no"?>
<!DOCTYPE svg PUBLIC "-//W3C//DTD SVG 1.1//EN"
 "http://www.w3.org/Graphics/SVG/1.1/DTD/svg11.dtd">
<!-- Generated by graphviz version 2.26.3 (20100126.1600)
 -->
<!-- Title: Tree Pages: 1 -->
<svg width="1219pt" height="756pt"
 viewBox="0.00 0.00 1219.00 756.00" xmlns="http://www.w3.org/2000/svg" xmlns:xlink="http://www.w3.org/1999/xlink">
<g id="graph1" class="graph" transform="scale(1 1) rotate(0) translate(4 752)">
<title>Tree</title>
<polygon fill="white" stroke="white" points="-4,5 -4,-752 1216,-752 1216,5 -4,5"/>
<!-- 0 -->
<g id="node1" class="node"><title>0</title>
<polygon fill="none" stroke="black" points="1056,-748 872,-748 872,-686 1056,-686 1056,-748"/>
<text text-anchor="middle" x="964" y="-731.4" font-family="Times Roman,serif" font-size="14.00">X[3] &lt;= 0.5000</text>
<text text-anchor="middle" x="964" y="-713.4" font-family="Times Roman,serif" font-size="14.00">gini = 0.759337319871</text>
<text text-anchor="middle" x="964" y="-695.4" font-family="Times Roman,serif" font-size="14.00">samples = 101</text>
</g>
<!-- 1 -->
<g id="node2" class="node"><title>1</title>
<polygon fill="none" stroke="black" points="919,-650 791,-650 791,-588 919,-588 919,-650"/>
<text text-anchor="middle" x="855" y="-633.4" font-family="Times Roman,serif" font-size="14.00">X[1] &lt;= 0.5000</text>
<text text-anchor="middle" x="855" y="-615.4" font-family="Times Roman,serif" font-size="14.00">gini = 0.785</text>
<text text-anchor="middle" x="855" y="-597.4" font-family="Times Roman,serif" font-size="14.00">samples = 60</text>
</g>
<!-- 0&#45;&gt;1 -->
<g id="edge2" class="edge"><title>0&#45;&gt;1</title>
<path fill="none" stroke="black" d="M929.512,-685.992C919.273,-676.787 907.941,-666.598 897.268,-657.002"/>
<polygon fill="black" stroke="black" points="899.414,-654.226 889.638,-650.142 894.734,-659.431 899.414,-654.226"/>
</g>
<!-- 18 -->
<g id="node36" class="node"><title>18</title>
<polygon fill="none" stroke="black" points="1211,-650 937,-650 937,-588 1211,-588 1211,-650"/>
<text text-anchor="middle" x="1074" y="-633.4" font-family="Times Roman,serif" font-size="14.00">gini = 0.0000</text>
<text text-anchor="middle" x="1074" y="-615.4" font-family="Times Roman,serif" font-size="14.00">samples = 41</text>
<text text-anchor="middle" x="1074" y="-597.4" font-family="Times Roman,serif" font-size="14.00">value = [ 41. &#160;&#160;0. &#160;&#160;0. &#160;&#160;0. &#160;&#160;0. &#160;&#160;0. &#160;&#160;0.]</text>
</g>
<!-- 0&#45;&gt;18 -->
<g id="edge36" class="edge"><title>0&#45;&gt;18</title>
<path fill="none" stroke="black" d="M998.805,-685.992C1009.14,-676.787 1020.57,-666.598 1031.34,-657.002"/>
<polygon fill="black" stroke="black" points="1033.91,-659.408 1039.04,-650.142 1029.25,-654.181 1033.91,-659.408"/>
</g>
<!-- 2 -->
<g id="node4" class="node"><title>2</title>
<polygon fill="none" stroke="black" points="812,-552 674,-552 674,-490 812,-490 812,-552"/>
<text text-anchor="middle" x="743" y="-535.4" font-family="Times Roman,serif" font-size="14.00">X[11] &lt;= 0.5000</text>
<text text-anchor="middle" x="743" y="-517.4" font-family="Times Roman,serif" font-size="14.00">gini = 0.76625</text>
<text text-anchor="middle" x="743" y="-499.4" font-family="Times Roman,serif" font-size="14.00">samples = 40</text>
</g>
<!-- 1&#45;&gt;2 -->
<g id="edge4" class="edge"><title>1&#45;&gt;2</title>
<path fill="none" stroke="black" d="M819.562,-587.992C809.042,-578.787 797.398,-568.598 786.431,-559.002"/>
<polygon fill="black" stroke="black" points="788.422,-556.094 778.591,-552.142 783.812,-561.362 788.422,-556.094"/>
</g>
<!-- 17 -->
<g id="node34" class="node"><title>17</title>
<polygon fill="none" stroke="black" points="1104,-552 830,-552 830,-490 1104,-490 1104,-552"/>
<text text-anchor="middle" x="967" y="-535.4" font-family="Times Roman,serif" font-size="14.00">gini = 0.0000</text>
<text text-anchor="middle" x="967" y="-517.4" font-family="Times Roman,serif" font-size="14.00">samples = 20</text>
<text text-anchor="middle" x="967" y="-499.4" font-family="Times Roman,serif" font-size="14.00">value = [ &#160;0. &#160;20. &#160;&#160;0. &#160;&#160;0. &#160;&#160;0. &#160;&#160;0. &#160;&#160;0.]</text>
</g>
<!-- 1&#45;&gt;17 -->
<g id="edge34" class="edge"><title>1&#45;&gt;17</title>
<path fill="none" stroke="black" d="M890.438,-587.992C900.958,-578.787 912.602,-568.598 923.569,-559.002"/>
<polygon fill="black" stroke="black" points="926.188,-561.362 931.409,-552.142 921.578,-556.094 926.188,-561.362"/>
</g>
<!-- 3 -->
<g id="node6" class="node"><title>3</title>
<polygon fill="none" stroke="black" points="712,-454 528,-454 528,-392 712,-392 712,-454"/>
<text text-anchor="middle" x="620" y="-437.4" font-family="Times Roman,serif" font-size="14.00">X[8] &lt;= 0.5000</text>
<text text-anchor="middle" x="620" y="-419.4" font-family="Times Roman,serif" font-size="14.00">gini = 0.718792866941</text>
<text text-anchor="middle" x="620" y="-401.4" font-family="Times Roman,serif" font-size="14.00">samples = 27</text>
</g>
<!-- 2&#45;&gt;3 -->
<g id="edge6" class="edge"><title>2&#45;&gt;3</title>
<path fill="none" stroke="black" d="M704.082,-489.992C692.304,-480.608 679.243,-470.202 666.996,-460.444"/>
<polygon fill="black" stroke="black" points="669.089,-457.637 659.087,-454.142 664.727,-463.111 669.089,-457.637"/>
</g>
<!-- 16 -->
<g id="node32" class="node"><title>16</title>
<polygon fill="none" stroke="black" points="1004,-454 730,-454 730,-392 1004,-392 1004,-454"/>
<text text-anchor="middle" x="867" y="-437.4" font-family="Times Roman,serif" font-size="14.00">gini = 0.0000</text>
<text text-anchor="middle" x="867" y="-419.4" font-family="Times Roman,serif" font-size="14.00">samples = 13</text>
<text text-anchor="middle" x="867" y="-401.4" font-family="Times Roman,serif" font-size="14.00">value = [ &#160;0. &#160;&#160;0. &#160;&#160;0. &#160;13. &#160;&#160;0. &#160;&#160;0. &#160;&#160;0.]</text>
</g>
<!-- 2&#45;&gt;16 -->
<g id="edge32" class="edge"><title>2&#45;&gt;16</title>
<path fill="none" stroke="black" d="M782.234,-489.992C794.108,-480.608 807.275,-470.202 819.622,-460.444"/>
<polygon fill="black" stroke="black" points="821.92,-463.089 827.595,-454.142 817.579,-457.597 821.92,-463.089"/>
</g>
<!-- 4 -->
<g id="node8" class="node"><title>4</title>
<polygon fill="none" stroke="black" points="584,-356 400,-356 400,-294 584,-294 584,-356"/>
<text text-anchor="middle" x="492" y="-339.4" font-family="Times Roman,serif" font-size="14.00">X[4] &lt;= 0.5000</text>
<text text-anchor="middle" x="492" y="-321.4" font-family="Times Roman,serif" font-size="14.00">gini = 0.493827160494</text>
<text text-anchor="middle" x="492" y="-303.4" font-family="Times Roman,serif" font-size="14.00">samples = 18</text>
</g>
<!-- 3&#45;&gt;4 -->
<g id="edge8" class="edge"><title>3&#45;&gt;4</title>
<path fill="none" stroke="black" d="M579.5,-391.992C567.243,-382.608 553.651,-372.202 540.906,-362.444"/>
<polygon fill="black" stroke="black" points="542.744,-359.443 532.676,-356.142 538.488,-365.001 542.744,-359.443"/>
</g>
<!-- 11 -->
<g id="node22" class="node"><title>11</title>
<polygon fill="none" stroke="black" points="840,-356 656,-356 656,-294 840,-294 840,-356"/>
<text text-anchor="middle" x="748" y="-339.4" font-family="Times Roman,serif" font-size="14.00">X[5] &lt;= 0.5000</text>
<text text-anchor="middle" x="748" y="-321.4" font-family="Times Roman,serif" font-size="14.00">gini = 0.493827160494</text>
<text text-anchor="middle" x="748" y="-303.4" font-family="Times Roman,serif" font-size="14.00">samples = 9</text>
</g>
<!-- 3&#45;&gt;11 -->
<g id="edge22" class="edge"><title>3&#45;&gt;11</title>
<path fill="none" stroke="black" d="M660.5,-391.992C672.757,-382.608 686.349,-372.202 699.094,-362.444"/>
<polygon fill="black" stroke="black" points="701.512,-365.001 707.324,-356.142 697.256,-359.443 701.512,-365.001"/>
</g>
<!-- 5 -->
<g id="node10" class="node"><title>5</title>
<polygon fill="none" stroke="black" points="355,-258 171,-258 171,-196 355,-196 355,-258"/>
<text text-anchor="middle" x="263" y="-241.4" font-family="Times Roman,serif" font-size="14.00">X[6] &lt;= 0.5000</text>
<text text-anchor="middle" x="263" y="-223.4" font-family="Times Roman,serif" font-size="14.00">gini = 0.277777777778</text>
<text text-anchor="middle" x="263" y="-205.4" font-family="Times Roman,serif" font-size="14.00">samples = 12</text>
</g>
<!-- 4&#45;&gt;5 -->
<g id="edge10" class="edge"><title>4&#45;&gt;5</title>
<path fill="none" stroke="black" d="M419.543,-293.992C395.84,-283.849 369.346,-272.51 344.991,-262.088"/>
<polygon fill="black" stroke="black" points="346.342,-258.859 335.772,-258.142 343.588,-265.295 346.342,-258.859"/>
</g>
<!-- 10 -->
<g id="node20" class="node"><title>10</title>
<polygon fill="none" stroke="black" points="611,-258 373,-258 373,-196 611,-196 611,-258"/>
<text text-anchor="middle" x="492" y="-241.4" font-family="Times Roman,serif" font-size="14.00">gini = 0.0000</text>
<text text-anchor="middle" x="492" y="-223.4" font-family="Times Roman,serif" font-size="14.00">samples = 6</text>
<text text-anchor="middle" x="492" y="-205.4" font-family="Times Roman,serif" font-size="14.00">value = [ 0. &#160;0. &#160;0. &#160;0. &#160;0. &#160;6. &#160;0.]</text>
</g>
<!-- 4&#45;&gt;10 -->
<g id="edge20" class="edge"><title>4&#45;&gt;10</title>
<path fill="none" stroke="black" d="M492,-293.992C492,-285.859 492,-276.959 492,-268.378"/>
<polygon fill="black" stroke="black" points="495.5,-268.142 492,-258.142 488.5,-268.142 495.5,-268.142"/>
</g>
<!-- 6 -->
<g id="node12" class="node"><title>6</title>
<polygon fill="none" stroke="black" points="316,-160 178,-160 178,-98 316,-98 316,-160"/>
<text text-anchor="middle" x="247" y="-143.4" font-family="Times Roman,serif" font-size="14.00">X[12] &lt;= 3.0000</text>
<text text-anchor="middle" x="247" y="-125.4" font-family="Times Roman,serif" font-size="14.00">gini = 0.5</text>
<text text-anchor="middle" x="247" y="-107.4" font-family="Times Roman,serif" font-size="14.00">samples = 4</text>
</g>
<!-- 5&#45;&gt;6 -->
<g id="edge12" class="edge"><title>5&#45;&gt;6</title>
<path fill="none" stroke="black" d="M257.938,-195.992C256.595,-187.77 255.125,-178.763 253.709,-170.095"/>
<polygon fill="black" stroke="black" points="257.15,-169.448 252.084,-160.142 250.242,-170.576 257.15,-169.448"/>
</g>
<!-- 9 -->
<g id="node18" class="node"><title>9</title>
<polygon fill="none" stroke="black" points="572,-160 334,-160 334,-98 572,-98 572,-160"/>
<text text-anchor="middle" x="453" y="-143.4" font-family="Times Roman,serif" font-size="14.00">gini = 0.0000</text>
<text text-anchor="middle" x="453" y="-125.4" font-family="Times Roman,serif" font-size="14.00">samples = 8</text>
<text text-anchor="middle" x="453" y="-107.4" font-family="Times Roman,serif" font-size="14.00">value = [ 0. &#160;0. &#160;0. &#160;0. &#160;0. &#160;0. &#160;8.]</text>
</g>
<!-- 5&#45;&gt;9 -->
<g id="edge18" class="edge"><title>5&#45;&gt;9</title>
<path fill="none" stroke="black" d="M323.117,-195.992C342.35,-186.072 363.798,-175.009 383.635,-164.778"/>
<polygon fill="black" stroke="black" points="385.339,-167.837 392.622,-160.142 382.13,-161.616 385.339,-167.837"/>
</g>
<!-- 7 -->
<g id="node14" class="node"><title>7</title>
<polygon fill="none" stroke="black" points="238,-62 1.13687e-13,-62 1.42109e-14,-3.19744e-14 238,-7.10543e-15 238,-62"/>
<text text-anchor="middle" x="119" y="-45.4" font-family="Times Roman,serif" font-size="14.00">gini = 0.0000</text>
<text text-anchor="middle" x="119" y="-27.4" font-family="Times Roman,serif" font-size="14.00">samples = 2</text>
<text text-anchor="middle" x="119" y="-9.4" font-family="Times Roman,serif" font-size="14.00">value = [ 0. &#160;0. &#160;0. &#160;0. &#160;0. &#160;0. &#160;2.]</text>
</g>
<!-- 6&#45;&gt;7 -->
<g id="edge14" class="edge"><title>6&#45;&gt;7</title>
<path fill="none" stroke="black" d="M206.5,-97.9922C194.243,-88.6082 180.651,-78.2019 167.906,-68.4439"/>
<polygon fill="black" stroke="black" points="169.744,-65.4426 159.676,-62.1425 165.488,-71.0006 169.744,-65.4426"/>
</g>
<!-- 8 -->
<g id="node16" class="node"><title>8</title>
<polygon fill="none" stroke="black" points="494,-62 256,-62 256,-3.19744e-14 494,-7.10543e-15 494,-62"/>
<text text-anchor="middle" x="375" y="-45.4" font-family="Times Roman,serif" font-size="14.00">gini = 0.0000</text>
<text text-anchor="middle" x="375" y="-27.4" font-family="Times Roman,serif" font-size="14.00">samples = 2</text>
<text text-anchor="middle" x="375" y="-9.4" font-family="Times Roman,serif" font-size="14.00">value = [ 0. &#160;0. &#160;0. &#160;0. &#160;0. &#160;2. &#160;0.]</text>
</g>
<!-- 6&#45;&gt;8 -->
<g id="edge16" class="edge"><title>6&#45;&gt;8</title>
<path fill="none" stroke="black" d="M287.5,-97.9922C299.757,-88.6082 313.349,-78.2019 326.094,-68.4439"/>
<polygon fill="black" stroke="black" points="328.512,-71.0006 334.324,-62.1425 324.256,-65.4426 328.512,-71.0006"/>
</g>
<!-- 12 -->
<g id="node24" class="node"><title>12</title>
<polygon fill="none" stroke="black" points="867,-258 629,-258 629,-196 867,-196 867,-258"/>
<text text-anchor="middle" x="748" y="-241.4" font-family="Times Roman,serif" font-size="14.00">gini = 0.0000</text>
<text text-anchor="middle" x="748" y="-223.4" font-family="Times Roman,serif" font-size="14.00">samples = 4</text>
<text text-anchor="middle" x="748" y="-205.4" font-family="Times Roman,serif" font-size="14.00">value = [ 0. &#160;0. &#160;4. &#160;0. &#160;0. &#160;0. &#160;0.]</text>
</g>
<!-- 11&#45;&gt;12 -->
<g id="edge24" class="edge"><title>11&#45;&gt;12</title>
<path fill="none" stroke="black" d="M748,-293.992C748,-285.859 748,-276.959 748,-268.378"/>
<polygon fill="black" stroke="black" points="751.5,-268.142 748,-258.142 744.5,-268.142 751.5,-268.142"/>
</g>
<!-- 13 -->
<g id="node26" class="node"><title>13</title>
<polygon fill="none" stroke="black" points="1013,-258 885,-258 885,-196 1013,-196 1013,-258"/>
<text text-anchor="middle" x="949" y="-241.4" font-family="Times Roman,serif" font-size="14.00">X[9] &lt;= 0.5000</text>
<text text-anchor="middle" x="949" y="-223.4" font-family="Times Roman,serif" font-size="14.00">gini = 0.32</text>
<text text-anchor="middle" x="949" y="-205.4" font-family="Times Roman,serif" font-size="14.00">samples = 5</text>
</g>
<!-- 11&#45;&gt;13 -->
<g id="edge26" class="edge"><title>11&#45;&gt;13</title>
<path fill="none" stroke="black" d="M811.598,-293.992C832.036,-284.027 854.839,-272.91 875.902,-262.64"/>
<polygon fill="black" stroke="black" points="877.672,-265.671 885.126,-258.142 874.604,-259.379 877.672,-265.671"/>
</g>
<!-- 14 -->
<g id="node28" class="node"><title>14</title>
<polygon fill="none" stroke="black" points="948,-160 710,-160 710,-98 948,-98 948,-160"/>
<text text-anchor="middle" x="829" y="-143.4" font-family="Times Roman,serif" font-size="14.00">gini = 0.0000</text>
<text text-anchor="middle" x="829" y="-125.4" font-family="Times Roman,serif" font-size="14.00">samples = 1</text>
<text text-anchor="middle" x="829" y="-107.4" font-family="Times Roman,serif" font-size="14.00">value = [ 0. &#160;0. &#160;1. &#160;0. &#160;0. &#160;0. &#160;0.]</text>
</g>
<!-- 13&#45;&gt;14 -->
<g id="edge28" class="edge"><title>13&#45;&gt;14</title>
<path fill="none" stroke="black" d="M911.031,-195.992C899.65,-186.698 887.041,-176.4 875.191,-166.723"/>
<polygon fill="black" stroke="black" points="877.093,-163.757 867.134,-160.142 872.665,-169.179 877.093,-163.757"/>
</g>
<!-- 15 -->
<g id="node30" class="node"><title>15</title>
<polygon fill="none" stroke="black" points="1204,-160 966,-160 966,-98 1204,-98 1204,-160"/>
<text text-anchor="middle" x="1085" y="-143.4" font-family="Times Roman,serif" font-size="14.00">gini = 0.0000</text>
<text text-anchor="middle" x="1085" y="-125.4" font-family="Times Roman,serif" font-size="14.00">samples = 4</text>
<text text-anchor="middle" x="1085" y="-107.4" font-family="Times Roman,serif" font-size="14.00">value = [ 0. &#160;0. &#160;0. &#160;0. &#160;4. &#160;0. &#160;0.]</text>
</g>
<!-- 13&#45;&gt;15 -->
<g id="edge30" class="edge"><title>13&#45;&gt;15</title>
<path fill="none" stroke="black" d="M992.031,-195.992C1005.18,-186.519 1019.77,-176.004 1033.42,-166.165"/>
<polygon fill="black" stroke="black" points="1035.71,-168.828 1041.78,-160.142 1031.62,-163.149 1035.71,-168.828"/>
</g>
</g>
</svg>
