<?xml version="1.0" encoding="UTF-8" standalone="no"?>
<!DOCTYPE svg PUBLIC "-//W3C//DTD SVG 1.1//EN"
 "http://www.w3.org/Graphics/SVG/1.1/DTD/svg11.dtd">
<!-- Generated by graphviz version 2.26.3 (20100126.1600)
 -->
<!-- Title: Tree Pages: 1 -->
<svg width="1687pt" height="658pt"
 viewBox="0.00 0.00 1687.00 658.00" xmlns="http://www.w3.org/2000/svg" xmlns:xlink="http://www.w3.org/1999/xlink">
<g id="graph1" class="graph" transform="scale(1 1) rotate(0) translate(4 654)">
<title>Tree</title>
<polygon fill="white" stroke="white" points="-4,5 -4,-654 1684,-654 1684,5 -4,5"/>
<!-- 0 -->
<g id="node1" class="node"><title>0</title>
<polygon fill="none" stroke="black" points="861,-650 677,-650 677,-588 861,-588 861,-650"/>
<text text-anchor="middle" x="769" y="-633.4" font-family="Times Roman,serif" font-size="14.00">X[1] &lt;= 0.5000</text>
<text text-anchor="middle" x="769" y="-615.4" font-family="Times Roman,serif" font-size="14.00">gini = 0.362317419861</text>
<text text-anchor="middle" x="769" y="-597.4" font-family="Times Roman,serif" font-size="14.00">samples = 101</text>
</g>
<!-- 1 -->
<g id="node2" class="node"><title>1</title>
<polygon fill="none" stroke="black" points="747,-552 563,-552 563,-490 747,-490 747,-552"/>
<text text-anchor="middle" x="655" y="-535.4" font-family="Times Roman,serif" font-size="14.00">X[11] &lt;= 5.5000</text>
<text text-anchor="middle" x="655" y="-517.4" font-family="Times Roman,serif" font-size="14.00">gini = 0.178021643042</text>
<text text-anchor="middle" x="655" y="-499.4" font-family="Times Roman,serif" font-size="14.00">samples = 81</text>
</g>
<!-- 0&#45;&gt;1 -->
<g id="edge2" class="edge"><title>0&#45;&gt;1</title>
<path fill="none" stroke="black" d="M732.93,-587.992C722.118,-578.698 710.139,-568.4 698.882,-558.723"/>
<polygon fill="black" stroke="black" points="701.092,-556.007 691.227,-552.142 696.529,-561.315 701.092,-556.007"/>
</g>
<!-- 20 -->
<g id="node40" class="node"><title>20</title>
<polygon fill="none" stroke="black" points="953,-552 815,-552 815,-490 953,-490 953,-552"/>
<text text-anchor="middle" x="884" y="-535.4" font-family="Times Roman,serif" font-size="14.00">X[14] &lt;= 0.5000</text>
<text text-anchor="middle" x="884" y="-517.4" font-family="Times Roman,serif" font-size="14.00">gini = 0.32</text>
<text text-anchor="middle" x="884" y="-499.4" font-family="Times Roman,serif" font-size="14.00">samples = 20</text>
</g>
<!-- 0&#45;&gt;20 -->
<g id="edge40" class="edge"><title>0&#45;&gt;20</title>
<path fill="none" stroke="black" d="M805.387,-587.992C816.294,-578.698 828.378,-568.4 839.733,-558.723"/>
<polygon fill="black" stroke="black" points="842.114,-561.293 847.455,-552.142 837.574,-555.965 842.114,-561.293"/>
</g>
<!-- 2 -->
<g id="node4" class="node"><title>2</title>
<polygon fill="none" stroke="black" points="522,-454 330,-454 330,-392 522,-392 522,-454"/>
<text text-anchor="middle" x="426" y="-437.4" font-family="Times Roman,serif" font-size="14.00">X[5] &lt;= 0.5000</text>
<text text-anchor="middle" x="426" y="-419.4" font-family="Times Roman,serif" font-size="14.00">gini = 0.0562906952321</text>
<text text-anchor="middle" x="426" y="-401.4" font-family="Times Roman,serif" font-size="14.00">samples = 69</text>
</g>
<!-- 1&#45;&gt;2 -->
<g id="edge4" class="edge"><title>1&#45;&gt;2</title>
<path fill="none" stroke="black" d="M582.543,-489.992C558.84,-479.849 532.346,-468.51 507.991,-458.088"/>
<polygon fill="black" stroke="black" points="509.342,-454.859 498.772,-454.142 506.588,-461.295 509.342,-454.859"/>
</g>
<!-- 11 -->
<g id="node22" class="node"><title>11</title>
<polygon fill="none" stroke="black" points="719,-454 591,-454 591,-392 719,-392 719,-454"/>
<text text-anchor="middle" x="655" y="-437.4" font-family="Times Roman,serif" font-size="14.00">X[0] &lt;= 0.5000</text>
<text text-anchor="middle" x="655" y="-419.4" font-family="Times Roman,serif" font-size="14.00">gini = 0.5</text>
<text text-anchor="middle" x="655" y="-401.4" font-family="Times Roman,serif" font-size="14.00">samples = 12</text>
</g>
<!-- 1&#45;&gt;11 -->
<g id="edge22" class="edge"><title>1&#45;&gt;11</title>
<path fill="none" stroke="black" d="M655,-489.992C655,-481.859 655,-472.959 655,-464.378"/>
<polygon fill="black" stroke="black" points="658.5,-464.142 655,-454.142 651.5,-464.142 658.5,-464.142"/>
</g>
<!-- 3 -->
<g id="node6" class="node"><title>3</title>
<polygon fill="none" stroke="black" points="338,-356 154,-356 154,-294 338,-294 338,-356"/>
<text text-anchor="middle" x="246" y="-339.4" font-family="Times Roman,serif" font-size="14.00">X[11] &lt;= 3.0000</text>
<text text-anchor="middle" x="246" y="-321.4" font-family="Times Roman,serif" font-size="14.00">gini = 0.137174211248</text>
<text text-anchor="middle" x="246" y="-303.4" font-family="Times Roman,serif" font-size="14.00">samples = 27</text>
</g>
<!-- 2&#45;&gt;3 -->
<g id="edge6" class="edge"><title>2&#45;&gt;3</title>
<path fill="none" stroke="black" d="M369.047,-391.992C350.99,-382.161 330.873,-371.208 312.223,-361.055"/>
<polygon fill="black" stroke="black" points="313.657,-357.85 303.2,-356.142 310.31,-363.998 313.657,-357.85"/>
</g>
<!-- 10 -->
<g id="node20" class="node"><title>10</title>
<polygon fill="none" stroke="black" points="496,-356 356,-356 356,-294 496,-294 496,-356"/>
<text text-anchor="middle" x="426" y="-339.4" font-family="Times Roman,serif" font-size="14.00">gini = 0.0000</text>
<text text-anchor="middle" x="426" y="-321.4" font-family="Times Roman,serif" font-size="14.00">samples = 42</text>
<text text-anchor="middle" x="426" y="-303.4" font-family="Times Roman,serif" font-size="14.00">value = [ 42. &#160;&#160;0.]</text>
</g>
<!-- 2&#45;&gt;10 -->
<g id="edge20" class="edge"><title>2&#45;&gt;10</title>
<path fill="none" stroke="black" d="M426,-391.992C426,-383.859 426,-374.959 426,-366.378"/>
<polygon fill="black" stroke="black" points="429.5,-366.142 426,-356.142 422.5,-366.142 429.5,-366.142"/>
</g>
<!-- 4 -->
<g id="node8" class="node"><title>4</title>
<polygon fill="none" stroke="black" points="220,-258 36,-258 36,-196 220,-196 220,-258"/>
<text text-anchor="middle" x="128" y="-241.4" font-family="Times Roman,serif" font-size="14.00">X[2] &lt;= 0.5000</text>
<text text-anchor="middle" x="128" y="-223.4" font-family="Times Roman,serif" font-size="14.00">gini = 0.297520661157</text>
<text text-anchor="middle" x="128" y="-205.4" font-family="Times Roman,serif" font-size="14.00">samples = 11</text>
</g>
<!-- 3&#45;&gt;4 -->
<g id="edge8" class="edge"><title>3&#45;&gt;4</title>
<path fill="none" stroke="black" d="M208.664,-293.992C197.473,-284.698 185.073,-274.4 173.421,-264.723"/>
<polygon fill="black" stroke="black" points="175.427,-261.839 165.498,-258.142 170.955,-267.224 175.427,-261.839"/>
</g>
<!-- 9 -->
<g id="node18" class="node"><title>9</title>
<polygon fill="none" stroke="black" points="378,-258 238,-258 238,-196 378,-196 378,-258"/>
<text text-anchor="middle" x="308" y="-241.4" font-family="Times Roman,serif" font-size="14.00">gini = 0.0000</text>
<text text-anchor="middle" x="308" y="-223.4" font-family="Times Roman,serif" font-size="14.00">samples = 16</text>
<text text-anchor="middle" x="308" y="-205.4" font-family="Times Roman,serif" font-size="14.00">value = [ 16. &#160;&#160;0.]</text>
</g>
<!-- 3&#45;&gt;9 -->
<g id="edge18" class="edge"><title>3&#45;&gt;9</title>
<path fill="none" stroke="black" d="M265.617,-293.992C271.102,-285.323 277.138,-275.782 282.893,-266.685"/>
<polygon fill="black" stroke="black" points="285.909,-268.465 288.298,-258.142 279.993,-264.722 285.909,-268.465"/>
</g>
<!-- 5 -->
<g id="node10" class="node"><title>5</title>
<polygon fill="none" stroke="black" points="171,-160 33,-160 33,-98 171,-98 171,-160"/>
<text text-anchor="middle" x="102" y="-143.4" font-family="Times Roman,serif" font-size="14.00">X[14] &lt;= 0.5000</text>
<text text-anchor="middle" x="102" y="-125.4" font-family="Times Roman,serif" font-size="14.00">gini = 0.48</text>
<text text-anchor="middle" x="102" y="-107.4" font-family="Times Roman,serif" font-size="14.00">samples = 5</text>
</g>
<!-- 4&#45;&gt;5 -->
<g id="edge10" class="edge"><title>4&#45;&gt;5</title>
<path fill="none" stroke="black" d="M119.773,-195.992C117.568,-187.681 115.15,-178.567 112.828,-169.812"/>
<polygon fill="black" stroke="black" points="116.21,-168.911 110.262,-160.142 109.444,-170.706 116.21,-168.911"/>
</g>
<!-- 8 -->
<g id="node16" class="node"><title>8</title>
<polygon fill="none" stroke="black" points="315,-160 189,-160 189,-98 315,-98 315,-160"/>
<text text-anchor="middle" x="252" y="-143.4" font-family="Times Roman,serif" font-size="14.00">gini = 0.0000</text>
<text text-anchor="middle" x="252" y="-125.4" font-family="Times Roman,serif" font-size="14.00">samples = 6</text>
<text text-anchor="middle" x="252" y="-107.4" font-family="Times Roman,serif" font-size="14.00">value = [ 6. &#160;0.]</text>
</g>
<!-- 4&#45;&gt;8 -->
<g id="edge16" class="edge"><title>4&#45;&gt;8</title>
<path fill="none" stroke="black" d="M167.234,-195.992C179.108,-186.608 192.275,-176.202 204.622,-166.444"/>
<polygon fill="black" stroke="black" points="206.92,-169.089 212.595,-160.142 202.579,-163.597 206.92,-169.089"/>
</g>
<!-- 6 -->
<g id="node12" class="node"><title>6</title>
<polygon fill="none" stroke="black" points="126,-62 4.9738e-14,-62 0,-3.19744e-14 126,-7.10543e-15 126,-62"/>
<text text-anchor="middle" x="63" y="-45.4" font-family="Times Roman,serif" font-size="14.00">gini = 0.4444</text>
<text text-anchor="middle" x="63" y="-27.4" font-family="Times Roman,serif" font-size="14.00">samples = 3</text>
<text text-anchor="middle" x="63" y="-9.4" font-family="Times Roman,serif" font-size="14.00">value = [ 1. &#160;2.]</text>
</g>
<!-- 5&#45;&gt;6 -->
<g id="edge12" class="edge"><title>5&#45;&gt;6</title>
<path fill="none" stroke="black" d="M89.6602,-97.9922C86.3169,-89.5913 82.6477,-80.371 79.1293,-71.5301"/>
<polygon fill="black" stroke="black" points="82.343,-70.1396 75.3934,-62.1425 75.8391,-72.7279 82.343,-70.1396"/>
</g>
<!-- 7 -->
<g id="node14" class="node"><title>7</title>
<polygon fill="none" stroke="black" points="270,-62 144,-62 144,-3.19744e-14 270,-7.10543e-15 270,-62"/>
<text text-anchor="middle" x="207" y="-45.4" font-family="Times Roman,serif" font-size="14.00">gini = 0.0000</text>
<text text-anchor="middle" x="207" y="-27.4" font-family="Times Roman,serif" font-size="14.00">samples = 2</text>
<text text-anchor="middle" x="207" y="-9.4" font-family="Times Roman,serif" font-size="14.00">value = [ 2. &#160;0.]</text>
</g>
<!-- 5&#45;&gt;7 -->
<g id="edge14" class="edge"><title>5&#45;&gt;7</title>
<path fill="none" stroke="black" d="M135.223,-97.9922C145.085,-88.787 156.002,-78.5979 166.283,-69.0022"/>
<polygon fill="black" stroke="black" points="168.711,-71.5244 173.633,-62.1425 163.934,-66.407 168.711,-71.5244"/>
</g>
<!-- 12 -->
<g id="node24" class="node"><title>12</title>
<polygon fill="none" stroke="black" points="642,-356 514,-356 514,-294 642,-294 642,-356"/>
<text text-anchor="middle" x="578" y="-339.4" font-family="Times Roman,serif" font-size="14.00">X[4] &lt;= 0.5000</text>
<text text-anchor="middle" x="578" y="-321.4" font-family="Times Roman,serif" font-size="14.00">gini = 0.375</text>
<text text-anchor="middle" x="578" y="-303.4" font-family="Times Roman,serif" font-size="14.00">samples = 8</text>
</g>
<!-- 11&#45;&gt;12 -->
<g id="edge24" class="edge"><title>11&#45;&gt;12</title>
<path fill="none" stroke="black" d="M630.637,-391.992C623.685,-383.144 616.019,-373.388 608.739,-364.123"/>
<polygon fill="black" stroke="black" points="611.399,-361.843 602.469,-356.142 605.895,-366.168 611.399,-361.843"/>
</g>
<!-- 19 -->
<g id="node38" class="node"><title>19</title>
<polygon fill="none" stroke="black" points="786,-356 660,-356 660,-294 786,-294 786,-356"/>
<text text-anchor="middle" x="723" y="-339.4" font-family="Times Roman,serif" font-size="14.00">gini = 0.0000</text>
<text text-anchor="middle" x="723" y="-321.4" font-family="Times Roman,serif" font-size="14.00">samples = 4</text>
<text text-anchor="middle" x="723" y="-303.4" font-family="Times Roman,serif" font-size="14.00">value = [ 0. &#160;4.]</text>
</g>
<!-- 11&#45;&gt;19 -->
<g id="edge38" class="edge"><title>11&#45;&gt;19</title>
<path fill="none" stroke="black" d="M676.516,-391.992C682.593,-383.234 689.288,-373.585 695.659,-364.404"/>
<polygon fill="black" stroke="black" points="698.566,-366.354 701.391,-356.142 692.815,-362.363 698.566,-366.354"/>
</g>
<!-- 13 -->
<g id="node26" class="node"><title>13</title>
<polygon fill="none" stroke="black" points="585,-258 447,-258 447,-196 585,-196 585,-258"/>
<text text-anchor="middle" x="516" y="-241.4" font-family="Times Roman,serif" font-size="14.00">X[12] &lt;= 0.5000</text>
<text text-anchor="middle" x="516" y="-223.4" font-family="Times Roman,serif" font-size="14.00">gini = 0.48</text>
<text text-anchor="middle" x="516" y="-205.4" font-family="Times Roman,serif" font-size="14.00">samples = 5</text>
</g>
<!-- 12&#45;&gt;13 -->
<g id="edge26" class="edge"><title>12&#45;&gt;13</title>
<path fill="none" stroke="black" d="M558.383,-293.992C552.898,-285.323 546.862,-275.782 541.107,-266.685"/>
<polygon fill="black" stroke="black" points="544.007,-264.722 535.702,-258.142 538.091,-268.465 544.007,-264.722"/>
</g>
<!-- 18 -->
<g id="node36" class="node"><title>18</title>
<polygon fill="none" stroke="black" points="729,-258 603,-258 603,-196 729,-196 729,-258"/>
<text text-anchor="middle" x="666" y="-241.4" font-family="Times Roman,serif" font-size="14.00">gini = 0.0000</text>
<text text-anchor="middle" x="666" y="-223.4" font-family="Times Roman,serif" font-size="14.00">samples = 3</text>
<text text-anchor="middle" x="666" y="-205.4" font-family="Times Roman,serif" font-size="14.00">value = [ 3. &#160;0.]</text>
</g>
<!-- 12&#45;&gt;18 -->
<g id="edge36" class="edge"><title>12&#45;&gt;18</title>
<path fill="none" stroke="black" d="M605.844,-293.992C613.869,-285.055 622.727,-275.191 631.121,-265.842"/>
<polygon fill="black" stroke="black" points="633.958,-267.921 638.035,-258.142 628.75,-263.245 633.958,-267.921"/>
</g>
<!-- 14 -->
<g id="node28" class="node"><title>14</title>
<polygon fill="none" stroke="black" points="520,-160 392,-160 392,-98 520,-98 520,-160"/>
<text text-anchor="middle" x="456" y="-143.4" font-family="Times Roman,serif" font-size="14.00">X[5] &lt;= 0.5000</text>
<text text-anchor="middle" x="456" y="-125.4" font-family="Times Roman,serif" font-size="14.00">gini = 0.5</text>
<text text-anchor="middle" x="456" y="-107.4" font-family="Times Roman,serif" font-size="14.00">samples = 4</text>
</g>
<!-- 13&#45;&gt;14 -->
<g id="edge28" class="edge"><title>13&#45;&gt;14</title>
<path fill="none" stroke="black" d="M497.016,-195.992C491.708,-187.323 485.866,-177.782 480.297,-168.685"/>
<polygon fill="black" stroke="black" points="483.273,-166.843 475.067,-160.142 477.303,-170.499 483.273,-166.843"/>
</g>
<!-- 17 -->
<g id="node34" class="node"><title>17</title>
<polygon fill="none" stroke="black" points="664,-160 538,-160 538,-98 664,-98 664,-160"/>
<text text-anchor="middle" x="601" y="-143.4" font-family="Times Roman,serif" font-size="14.00">gini = 0.0000</text>
<text text-anchor="middle" x="601" y="-125.4" font-family="Times Roman,serif" font-size="14.00">samples = 1</text>
<text text-anchor="middle" x="601" y="-107.4" font-family="Times Roman,serif" font-size="14.00">value = [ 1. &#160;0.]</text>
</g>
<!-- 13&#45;&gt;17 -->
<g id="edge34" class="edge"><title>13&#45;&gt;17</title>
<path fill="none" stroke="black" d="M542.895,-195.992C550.646,-187.055 559.202,-177.191 567.31,-167.842"/>
<polygon fill="black" stroke="black" points="570.08,-169.99 573.989,-160.142 564.792,-165.404 570.08,-169.99"/>
</g>
<!-- 15 -->
<g id="node30" class="node"><title>15</title>
<polygon fill="none" stroke="black" points="466,-62 340,-62 340,-3.19744e-14 466,-7.10543e-15 466,-62"/>
<text text-anchor="middle" x="403" y="-45.4" font-family="Times Roman,serif" font-size="14.00">gini = 0.4444</text>
<text text-anchor="middle" x="403" y="-27.4" font-family="Times Roman,serif" font-size="14.00">samples = 3</text>
<text text-anchor="middle" x="403" y="-9.4" font-family="Times Roman,serif" font-size="14.00">value = [ 2. &#160;1.]</text>
</g>
<!-- 14&#45;&gt;15 -->
<g id="edge30" class="edge"><title>14&#45;&gt;15</title>
<path fill="none" stroke="black" d="M439.23,-97.9922C434.59,-89.4126 429.488,-79.9783 424.614,-70.9664"/>
<polygon fill="black" stroke="black" points="427.678,-69.2735 419.842,-62.1425 421.521,-72.6035 427.678,-69.2735"/>
</g>
<!-- 16 -->
<g id="node32" class="node"><title>16</title>
<polygon fill="none" stroke="black" points="610,-62 484,-62 484,-3.19744e-14 610,-7.10543e-15 610,-62"/>
<text text-anchor="middle" x="547" y="-45.4" font-family="Times Roman,serif" font-size="14.00">gini = 0.0000</text>
<text text-anchor="middle" x="547" y="-27.4" font-family="Times Roman,serif" font-size="14.00">samples = 1</text>
<text text-anchor="middle" x="547" y="-9.4" font-family="Times Roman,serif" font-size="14.00">value = [ 0. &#160;1.]</text>
</g>
<!-- 14&#45;&gt;16 -->
<g id="edge32" class="edge"><title>14&#45;&gt;16</title>
<path fill="none" stroke="black" d="M484.793,-97.9922C493.175,-88.9657 502.435,-78.9933 511.193,-69.5619"/>
<polygon fill="black" stroke="black" points="513.842,-71.852 518.082,-62.1425 508.713,-67.0888 513.842,-71.852"/>
</g>
<!-- 21 -->
<g id="node42" class="node"><title>21</title>
<polygon fill="none" stroke="black" points="976,-454 792,-454 792,-392 976,-392 976,-454"/>
<text text-anchor="middle" x="884" y="-437.4" font-family="Times Roman,serif" font-size="14.00">X[5] &lt;= 0.5000</text>
<text text-anchor="middle" x="884" y="-419.4" font-family="Times Roman,serif" font-size="14.00">gini = 0.132653061224</text>
<text text-anchor="middle" x="884" y="-401.4" font-family="Times Roman,serif" font-size="14.00">samples = 14</text>
</g>
<!-- 20&#45;&gt;21 -->
<g id="edge42" class="edge"><title>20&#45;&gt;21</title>
<path fill="none" stroke="black" d="M884,-489.992C884,-481.859 884,-472.959 884,-464.378"/>
<polygon fill="black" stroke="black" points="887.5,-464.142 884,-454.142 880.5,-464.142 887.5,-464.142"/>
</g>
<!-- 26 -->
<g id="node52" class="node"><title>26</title>
<polygon fill="none" stroke="black" points="1320,-454 1192,-454 1192,-392 1320,-392 1320,-454"/>
<text text-anchor="middle" x="1256" y="-437.4" font-family="Times Roman,serif" font-size="14.00">X[5] &lt;= 0.5000</text>
<text text-anchor="middle" x="1256" y="-419.4" font-family="Times Roman,serif" font-size="14.00">gini = 0.5</text>
<text text-anchor="middle" x="1256" y="-401.4" font-family="Times Roman,serif" font-size="14.00">samples = 6</text>
</g>
<!-- 20&#45;&gt;26 -->
<g id="edge52" class="edge"><title>20&#45;&gt;26</title>
<path fill="none" stroke="black" d="M953.099,-502.797C1018.15,-485.659 1115.29,-460.069 1181.92,-442.515"/>
<polygon fill="black" stroke="black" points="1183.15,-445.81 1191.93,-439.878 1181.37,-439.041 1183.15,-445.81"/>
</g>
<!-- 22 -->
<g id="node44" class="node"><title>22</title>
<polygon fill="none" stroke="black" points="930,-356 804,-356 804,-294 930,-294 930,-356"/>
<text text-anchor="middle" x="867" y="-339.4" font-family="Times Roman,serif" font-size="14.00">gini = 0.0000</text>
<text text-anchor="middle" x="867" y="-321.4" font-family="Times Roman,serif" font-size="14.00">samples = 8</text>
<text text-anchor="middle" x="867" y="-303.4" font-family="Times Roman,serif" font-size="14.00">value = [ 0. &#160;8.]</text>
</g>
<!-- 21&#45;&gt;22 -->
<g id="edge44" class="edge"><title>21&#45;&gt;22</title>
<path fill="none" stroke="black" d="M878.621,-391.992C877.195,-383.77 875.632,-374.763 874.129,-366.095"/>
<polygon fill="black" stroke="black" points="877.56,-365.397 872.402,-356.142 870.663,-366.594 877.56,-365.397"/>
</g>
<!-- 23 -->
<g id="node46" class="node"><title>23</title>
<polygon fill="none" stroke="black" points="1132,-356 948,-356 948,-294 1132,-294 1132,-356"/>
<text text-anchor="middle" x="1040" y="-339.4" font-family="Times Roman,serif" font-size="14.00">X[4] &lt;= 0.5000</text>
<text text-anchor="middle" x="1040" y="-321.4" font-family="Times Roman,serif" font-size="14.00">gini = 0.277777777778</text>
<text text-anchor="middle" x="1040" y="-303.4" font-family="Times Roman,serif" font-size="14.00">samples = 6</text>
</g>
<!-- 21&#45;&gt;23 -->
<g id="edge46" class="edge"><title>21&#45;&gt;23</title>
<path fill="none" stroke="black" d="M933.359,-391.992C948.724,-382.34 965.81,-371.606 981.724,-361.609"/>
<polygon fill="black" stroke="black" points="983.82,-364.426 990.426,-356.142 980.097,-358.498 983.82,-364.426"/>
</g>
<!-- 24 -->
<g id="node48" class="node"><title>24</title>
<polygon fill="none" stroke="black" points="959,-258 833,-258 833,-196 959,-196 959,-258"/>
<text text-anchor="middle" x="896" y="-241.4" font-family="Times Roman,serif" font-size="14.00">gini = 0.4444</text>
<text text-anchor="middle" x="896" y="-223.4" font-family="Times Roman,serif" font-size="14.00">samples = 3</text>
<text text-anchor="middle" x="896" y="-205.4" font-family="Times Roman,serif" font-size="14.00">value = [ 1. &#160;2.]</text>
</g>
<!-- 23&#45;&gt;24 -->
<g id="edge48" class="edge"><title>23&#45;&gt;24</title>
<path fill="none" stroke="black" d="M994.438,-293.992C980.386,-284.429 964.775,-273.805 950.201,-263.887"/>
<polygon fill="black" stroke="black" points="951.997,-260.875 941.76,-258.142 948.058,-266.662 951.997,-260.875"/>
</g>
<!-- 25 -->
<g id="node50" class="node"><title>25</title>
<polygon fill="none" stroke="black" points="1103,-258 977,-258 977,-196 1103,-196 1103,-258"/>
<text text-anchor="middle" x="1040" y="-241.4" font-family="Times Roman,serif" font-size="14.00">gini = 0.0000</text>
<text text-anchor="middle" x="1040" y="-223.4" font-family="Times Roman,serif" font-size="14.00">samples = 3</text>
<text text-anchor="middle" x="1040" y="-205.4" font-family="Times Roman,serif" font-size="14.00">value = [ 0. &#160;3.]</text>
</g>
<!-- 23&#45;&gt;25 -->
<g id="edge50" class="edge"><title>23&#45;&gt;25</title>
<path fill="none" stroke="black" d="M1040,-293.992C1040,-285.859 1040,-276.959 1040,-268.378"/>
<polygon fill="black" stroke="black" points="1043.5,-268.142 1040,-258.142 1036.5,-268.142 1043.5,-268.142"/>
</g>
<!-- 27 -->
<g id="node54" class="node"><title>27</title>
<polygon fill="none" stroke="black" points="1348,-356 1164,-356 1164,-294 1348,-294 1348,-356"/>
<text text-anchor="middle" x="1256" y="-339.4" font-family="Times Roman,serif" font-size="14.00">X[4] &lt;= 0.5000</text>
<text text-anchor="middle" x="1256" y="-321.4" font-family="Times Roman,serif" font-size="14.00">gini = 0.444444444444</text>
<text text-anchor="middle" x="1256" y="-303.4" font-family="Times Roman,serif" font-size="14.00">samples = 3</text>
</g>
<!-- 26&#45;&gt;27 -->
<g id="edge54" class="edge"><title>26&#45;&gt;27</title>
<path fill="none" stroke="black" d="M1256,-391.992C1256,-383.859 1256,-374.959 1256,-366.378"/>
<polygon fill="black" stroke="black" points="1259.5,-366.142 1256,-356.142 1252.5,-366.142 1259.5,-366.142"/>
</g>
<!-- 30 -->
<g id="node60" class="node"><title>30</title>
<polygon fill="none" stroke="black" points="1564,-356 1380,-356 1380,-294 1564,-294 1564,-356"/>
<text text-anchor="middle" x="1472" y="-339.4" font-family="Times Roman,serif" font-size="14.00">X[4] &lt;= 0.5000</text>
<text text-anchor="middle" x="1472" y="-321.4" font-family="Times Roman,serif" font-size="14.00">gini = 0.444444444444</text>
<text text-anchor="middle" x="1472" y="-303.4" font-family="Times Roman,serif" font-size="14.00">samples = 3</text>
</g>
<!-- 26&#45;&gt;30 -->
<g id="edge60" class="edge"><title>26&#45;&gt;30</title>
<path fill="none" stroke="black" d="M1320.22,-393.862C1343.49,-383.306 1370.02,-371.269 1394.32,-360.243"/>
<polygon fill="black" stroke="black" points="1395.85,-363.392 1403.51,-356.072 1392.96,-357.017 1395.85,-363.392"/>
</g>
<!-- 28 -->
<g id="node56" class="node"><title>28</title>
<polygon fill="none" stroke="black" points="1247,-258 1121,-258 1121,-196 1247,-196 1247,-258"/>
<text text-anchor="middle" x="1184" y="-241.4" font-family="Times Roman,serif" font-size="14.00">gini = 0.5000</text>
<text text-anchor="middle" x="1184" y="-223.4" font-family="Times Roman,serif" font-size="14.00">samples = 2</text>
<text text-anchor="middle" x="1184" y="-205.4" font-family="Times Roman,serif" font-size="14.00">value = [ 1. &#160;1.]</text>
</g>
<!-- 27&#45;&gt;28 -->
<g id="edge56" class="edge"><title>27&#45;&gt;28</title>
<path fill="none" stroke="black" d="M1233.22,-293.992C1226.78,-285.234 1219.69,-275.585 1212.95,-266.404"/>
<polygon fill="black" stroke="black" points="1215.62,-264.129 1206.88,-258.142 1209.98,-268.274 1215.62,-264.129"/>
</g>
<!-- 29 -->
<g id="node58" class="node"><title>29</title>
<polygon fill="none" stroke="black" points="1391,-258 1265,-258 1265,-196 1391,-196 1391,-258"/>
<text text-anchor="middle" x="1328" y="-241.4" font-family="Times Roman,serif" font-size="14.00">gini = 0.0000</text>
<text text-anchor="middle" x="1328" y="-223.4" font-family="Times Roman,serif" font-size="14.00">samples = 1</text>
<text text-anchor="middle" x="1328" y="-205.4" font-family="Times Roman,serif" font-size="14.00">value = [ 0. &#160;1.]</text>
</g>
<!-- 27&#45;&gt;29 -->
<g id="edge58" class="edge"><title>27&#45;&gt;29</title>
<path fill="none" stroke="black" d="M1278.78,-293.992C1285.22,-285.234 1292.31,-275.585 1299.05,-266.404"/>
<polygon fill="black" stroke="black" points="1302.02,-268.274 1305.12,-258.142 1296.38,-264.129 1302.02,-268.274"/>
</g>
<!-- 31 -->
<g id="node62" class="node"><title>31</title>
<polygon fill="none" stroke="black" points="1535,-258 1409,-258 1409,-196 1535,-196 1535,-258"/>
<text text-anchor="middle" x="1472" y="-241.4" font-family="Times Roman,serif" font-size="14.00">gini = 0.5000</text>
<text text-anchor="middle" x="1472" y="-223.4" font-family="Times Roman,serif" font-size="14.00">samples = 2</text>
<text text-anchor="middle" x="1472" y="-205.4" font-family="Times Roman,serif" font-size="14.00">value = [ 1. &#160;1.]</text>
</g>
<!-- 30&#45;&gt;31 -->
<g id="edge62" class="edge"><title>30&#45;&gt;31</title>
<path fill="none" stroke="black" d="M1472,-293.992C1472,-285.859 1472,-276.959 1472,-268.378"/>
<polygon fill="black" stroke="black" points="1475.5,-268.142 1472,-258.142 1468.5,-268.142 1475.5,-268.142"/>
</g>
<!-- 32 -->
<g id="node64" class="node"><title>32</title>
<polygon fill="none" stroke="black" points="1679,-258 1553,-258 1553,-196 1679,-196 1679,-258"/>
<text text-anchor="middle" x="1616" y="-241.4" font-family="Times Roman,serif" font-size="14.00">gini = 0.0000</text>
<text text-anchor="middle" x="1616" y="-223.4" font-family="Times Roman,serif" font-size="14.00">samples = 1</text>
<text text-anchor="middle" x="1616" y="-205.4" font-family="Times Roman,serif" font-size="14.00">value = [ 1. &#160;0.]</text>
</g>
<!-- 30&#45;&gt;32 -->
<g id="edge64" class="edge"><title>30&#45;&gt;32</title>
<path fill="none" stroke="black" d="M1517.56,-293.992C1531.61,-284.429 1547.23,-273.805 1561.8,-263.887"/>
<polygon fill="black" stroke="black" points="1563.94,-266.662 1570.24,-258.142 1560,-260.875 1563.94,-266.662"/>
</g>
</g>
</svg>
