<?xml version="1.0" encoding="UTF-8" standalone="no"?>
<!DOCTYPE svg PUBLIC "-//W3C//DTD SVG 1.1//EN"
 "http://www.w3.org/Graphics/SVG/1.1/DTD/svg11.dtd">
<!-- Generated by graphviz version 2.26.3 (20100126.1600)
 -->
<!-- Title: Tree Pages: 1 -->
<svg width="1141pt" height="658pt"
 viewBox="0.00 0.00 1141.00 658.00" xmlns="http://www.w3.org/2000/svg" xmlns:xlink="http://www.w3.org/1999/xlink">
<g id="graph1" class="graph" transform="scale(1 1) rotate(0) translate(4 654)">
<title>Tree</title>
<polygon fill="white" stroke="white" points="-4,5 -4,-654 1138,-654 1138,5 -4,5"/>
<!-- 0 -->
<g id="node1" class="node"><title>0</title>
<polygon fill="none" stroke="black" points="969,-650 765,-650 765,-588 969,-588 969,-650"/>
<text text-anchor="middle" x="867" y="-633.4" font-family="Times Roman,serif" font-size="14.00">X[3] &lt;= 0.5000</text>
<text text-anchor="middle" x="867" y="-615.4" font-family="Times Roman,serif" font-size="14.00">entropy = 2.39055968229</text>
<text text-anchor="middle" x="867" y="-597.4" font-family="Times Roman,serif" font-size="14.00">samples = 101</text>
</g>
<!-- 1 -->
<g id="node2" class="node"><title>1</title>
<polygon fill="none" stroke="black" points="841,-552 637,-552 637,-490 841,-490 841,-552"/>
<text text-anchor="middle" x="739" y="-535.4" font-family="Times Roman,serif" font-size="14.00">X[1] &lt;= 0.5000</text>
<text text-anchor="middle" x="739" y="-517.4" font-family="Times Roman,serif" font-size="14.00">entropy = 2.38400393466</text>
<text text-anchor="middle" x="739" y="-499.4" font-family="Times Roman,serif" font-size="14.00">samples = 60</text>
</g>
<!-- 0&#45;&gt;1 -->
<g id="edge2" class="edge"><title>0&#45;&gt;1</title>
<path fill="none" stroke="black" d="M826.5,-587.992C814.243,-578.608 800.651,-568.202 787.906,-558.444"/>
<polygon fill="black" stroke="black" points="789.744,-555.443 779.676,-552.142 785.488,-561.001 789.744,-555.443"/>
</g>
<!-- 18 -->
<g id="node36" class="node"><title>18</title>
<polygon fill="none" stroke="black" points="1133,-552 859,-552 859,-490 1133,-490 1133,-552"/>
<text text-anchor="middle" x="996" y="-535.4" font-family="Times Roman,serif" font-size="14.00">entropy = 0.0000</text>
<text text-anchor="middle" x="996" y="-517.4" font-family="Times Roman,serif" font-size="14.00">samples = 41</text>
<text text-anchor="middle" x="996" y="-499.4" font-family="Times Roman,serif" font-size="14.00">value = [ 41. &#160;&#160;0. &#160;&#160;0. &#160;&#160;0. &#160;&#160;0. &#160;&#160;0. &#160;&#160;0.]</text>
</g>
<!-- 0&#45;&gt;18 -->
<g id="edge36" class="edge"><title>0&#45;&gt;18</title>
<path fill="none" stroke="black" d="M907.816,-587.992C920.169,-578.608 933.867,-568.202 946.712,-558.444"/>
<polygon fill="black" stroke="black" points="949.161,-560.979 955.006,-552.142 944.926,-555.405 949.161,-560.979"/>
</g>
<!-- 2 -->
<g id="node4" class="node"><title>2</title>
<polygon fill="none" stroke="black" points="713,-454 509,-454 509,-392 713,-392 713,-454"/>
<text text-anchor="middle" x="611" y="-437.4" font-family="Times Roman,serif" font-size="14.00">X[8] &lt;= 0.5000</text>
<text text-anchor="middle" x="611" y="-419.4" font-family="Times Roman,serif" font-size="14.00">entropy = 2.19856215091</text>
<text text-anchor="middle" x="611" y="-401.4" font-family="Times Roman,serif" font-size="14.00">samples = 40</text>
</g>
<!-- 1&#45;&gt;2 -->
<g id="edge4" class="edge"><title>1&#45;&gt;2</title>
<path fill="none" stroke="black" d="M698.5,-489.992C686.243,-480.608 672.651,-470.202 659.906,-460.444"/>
<polygon fill="black" stroke="black" points="661.744,-457.443 651.676,-454.142 657.488,-463.001 661.744,-457.443"/>
</g>
<!-- 17 -->
<g id="node34" class="node"><title>17</title>
<polygon fill="none" stroke="black" points="1005,-454 731,-454 731,-392 1005,-392 1005,-454"/>
<text text-anchor="middle" x="868" y="-437.4" font-family="Times Roman,serif" font-size="14.00">entropy = 0.0000</text>
<text text-anchor="middle" x="868" y="-419.4" font-family="Times Roman,serif" font-size="14.00">samples = 20</text>
<text text-anchor="middle" x="868" y="-401.4" font-family="Times Roman,serif" font-size="14.00">value = [ &#160;0. &#160;20. &#160;&#160;0. &#160;&#160;0. &#160;&#160;0. &#160;&#160;0. &#160;&#160;0.]</text>
</g>
<!-- 1&#45;&gt;17 -->
<g id="edge34" class="edge"><title>1&#45;&gt;17</title>
<path fill="none" stroke="black" d="M779.816,-489.992C792.169,-480.608 805.867,-470.202 818.712,-460.444"/>
<polygon fill="black" stroke="black" points="821.161,-462.979 827.006,-454.142 816.926,-457.405 821.161,-462.979"/>
</g>
<!-- 3 -->
<g id="node6" class="node"><title>3</title>
<polygon fill="none" stroke="black" points="596,-356 384,-356 384,-294 596,-294 596,-356"/>
<text text-anchor="middle" x="490" y="-339.4" font-family="Times Roman,serif" font-size="14.00">X[4] &lt;= 0.5000</text>
<text text-anchor="middle" x="490" y="-321.4" font-family="Times Roman,serif" font-size="14.00">entropy = 0.991076059838</text>
<text text-anchor="middle" x="490" y="-303.4" font-family="Times Roman,serif" font-size="14.00">samples = 18</text>
</g>
<!-- 2&#45;&gt;3 -->
<g id="edge6" class="edge"><title>2&#45;&gt;3</title>
<path fill="none" stroke="black" d="M572.715,-391.992C561.129,-382.608 548.28,-372.202 536.232,-362.444"/>
<polygon fill="black" stroke="black" points="538.425,-359.716 528.451,-356.142 534.02,-365.156 538.425,-359.716"/>
</g>
<!-- 10 -->
<g id="node20" class="node"><title>10</title>
<polygon fill="none" stroke="black" points="835,-356 631,-356 631,-294 835,-294 835,-356"/>
<text text-anchor="middle" x="733" y="-339.4" font-family="Times Roman,serif" font-size="14.00">X[11] &lt;= 0.5000</text>
<text text-anchor="middle" x="733" y="-321.4" font-family="Times Roman,serif" font-size="14.00">entropy = 1.38146085453</text>
<text text-anchor="middle" x="733" y="-303.4" font-family="Times Roman,serif" font-size="14.00">samples = 22</text>
</g>
<!-- 2&#45;&gt;10 -->
<g id="edge20" class="edge"><title>2&#45;&gt;10</title>
<path fill="none" stroke="black" d="M649.602,-391.992C661.284,-382.608 674.238,-372.202 686.386,-362.444"/>
<polygon fill="black" stroke="black" points="688.626,-365.134 694.231,-356.142 684.243,-359.676 688.626,-365.134"/>
</g>
<!-- 4 -->
<g id="node8" class="node"><title>4</title>
<polygon fill="none" stroke="black" points="353,-258 141,-258 141,-196 353,-196 353,-258"/>
<text text-anchor="middle" x="247" y="-241.4" font-family="Times Roman,serif" font-size="14.00">X[6] &lt;= 0.5000</text>
<text text-anchor="middle" x="247" y="-223.4" font-family="Times Roman,serif" font-size="14.00">entropy = 0.650022421648</text>
<text text-anchor="middle" x="247" y="-205.4" font-family="Times Roman,serif" font-size="14.00">samples = 12</text>
</g>
<!-- 3&#45;&gt;4 -->
<g id="edge8" class="edge"><title>3&#45;&gt;4</title>
<path fill="none" stroke="black" d="M413.113,-293.992C387.85,-283.804 359.599,-272.41 333.662,-261.95"/>
<polygon fill="black" stroke="black" points="334.804,-258.637 324.221,-258.142 332.186,-265.129 334.804,-258.637"/>
</g>
<!-- 9 -->
<g id="node18" class="node"><title>9</title>
<polygon fill="none" stroke="black" points="609,-258 371,-258 371,-196 609,-196 609,-258"/>
<text text-anchor="middle" x="490" y="-241.4" font-family="Times Roman,serif" font-size="14.00">entropy = 0.0000</text>
<text text-anchor="middle" x="490" y="-223.4" font-family="Times Roman,serif" font-size="14.00">samples = 6</text>
<text text-anchor="middle" x="490" y="-205.4" font-family="Times Roman,serif" font-size="14.00">value = [ 0. &#160;0. &#160;0. &#160;0. &#160;0. &#160;6. &#160;0.]</text>
</g>
<!-- 3&#45;&gt;9 -->
<g id="edge18" class="edge"><title>3&#45;&gt;9</title>
<path fill="none" stroke="black" d="M490,-293.992C490,-285.859 490,-276.959 490,-268.378"/>
<polygon fill="black" stroke="black" points="493.5,-268.142 490,-258.142 486.5,-268.142 493.5,-268.142"/>
</g>
<!-- 5 -->
<g id="node10" class="node"><title>5</title>
<polygon fill="none" stroke="black" points="213,-160 75,-160 75,-98 213,-98 213,-160"/>
<text text-anchor="middle" x="144" y="-143.4" font-family="Times Roman,serif" font-size="14.00">X[12] &lt;= 3.0000</text>
<text text-anchor="middle" x="144" y="-125.4" font-family="Times Roman,serif" font-size="14.00">entropy = 1.0</text>
<text text-anchor="middle" x="144" y="-107.4" font-family="Times Roman,serif" font-size="14.00">samples = 4</text>
</g>
<!-- 4&#45;&gt;5 -->
<g id="edge10" class="edge"><title>4&#45;&gt;5</title>
<path fill="none" stroke="black" d="M214.41,-195.992C204.829,-186.876 194.234,-176.796 184.235,-167.282"/>
<polygon fill="black" stroke="black" points="186.389,-164.5 176.731,-160.142 181.564,-169.571 186.389,-164.5"/>
</g>
<!-- 8 -->
<g id="node16" class="node"><title>8</title>
<polygon fill="none" stroke="black" points="469,-160 231,-160 231,-98 469,-98 469,-160"/>
<text text-anchor="middle" x="350" y="-143.4" font-family="Times Roman,serif" font-size="14.00">entropy = 0.0000</text>
<text text-anchor="middle" x="350" y="-125.4" font-family="Times Roman,serif" font-size="14.00">samples = 8</text>
<text text-anchor="middle" x="350" y="-107.4" font-family="Times Roman,serif" font-size="14.00">value = [ 0. &#160;0. &#160;0. &#160;0. &#160;0. &#160;0. &#160;8.]</text>
</g>
<!-- 4&#45;&gt;8 -->
<g id="edge16" class="edge"><title>4&#45;&gt;8</title>
<path fill="none" stroke="black" d="M279.59,-195.992C289.171,-186.876 299.766,-176.796 309.765,-167.282"/>
<polygon fill="black" stroke="black" points="312.436,-169.571 317.269,-160.142 307.611,-164.5 312.436,-169.571"/>
</g>
<!-- 6 -->
<g id="node12" class="node"><title>6</title>
<polygon fill="none" stroke="black" points="238,-62 1.13687e-13,-62 1.42109e-14,-3.19744e-14 238,-7.10543e-15 238,-62"/>
<text text-anchor="middle" x="119" y="-45.4" font-family="Times Roman,serif" font-size="14.00">entropy = 0.0000</text>
<text text-anchor="middle" x="119" y="-27.4" font-family="Times Roman,serif" font-size="14.00">samples = 2</text>
<text text-anchor="middle" x="119" y="-9.4" font-family="Times Roman,serif" font-size="14.00">value = [ 0. &#160;0. &#160;0. &#160;0. &#160;0. &#160;0. &#160;2.]</text>
</g>
<!-- 5&#45;&gt;6 -->
<g id="edge12" class="edge"><title>5&#45;&gt;6</title>
<path fill="none" stroke="black" d="M136.09,-97.9922C133.992,-89.77 131.695,-80.763 129.483,-72.095"/>
<polygon fill="black" stroke="black" points="132.808,-70.967 126.945,-62.1425 126.025,-72.6973 132.808,-70.967"/>
</g>
<!-- 7 -->
<g id="node14" class="node"><title>7</title>
<polygon fill="none" stroke="black" points="494,-62 256,-62 256,-3.19744e-14 494,-7.10543e-15 494,-62"/>
<text text-anchor="middle" x="375" y="-45.4" font-family="Times Roman,serif" font-size="14.00">entropy = 0.0000</text>
<text text-anchor="middle" x="375" y="-27.4" font-family="Times Roman,serif" font-size="14.00">samples = 2</text>
<text text-anchor="middle" x="375" y="-9.4" font-family="Times Roman,serif" font-size="14.00">value = [ 0. &#160;0. &#160;0. &#160;0. &#160;0. &#160;2. &#160;0.]</text>
</g>
<!-- 5&#45;&gt;7 -->
<g id="edge14" class="edge"><title>5&#45;&gt;7</title>
<path fill="none" stroke="black" d="M213.308,-99.5968C238.163,-89.052 266.436,-77.0575 292.312,-66.0796"/>
<polygon fill="black" stroke="black" points="293.888,-69.2132 301.727,-62.0856 291.154,-62.7692 293.888,-69.2132"/>
</g>
<!-- 11 -->
<g id="node22" class="node"><title>11</title>
<polygon fill="none" stroke="black" points="839,-258 627,-258 627,-196 839,-196 839,-258"/>
<text text-anchor="middle" x="733" y="-241.4" font-family="Times Roman,serif" font-size="14.00">X[5] &lt;= 0.5000</text>
<text text-anchor="middle" x="733" y="-223.4" font-family="Times Roman,serif" font-size="14.00">entropy = 0.991076059838</text>
<text text-anchor="middle" x="733" y="-205.4" font-family="Times Roman,serif" font-size="14.00">samples = 9</text>
</g>
<!-- 10&#45;&gt;11 -->
<g id="edge22" class="edge"><title>10&#45;&gt;11</title>
<path fill="none" stroke="black" d="M733,-293.992C733,-285.859 733,-276.959 733,-268.378"/>
<polygon fill="black" stroke="black" points="736.5,-268.142 733,-258.142 729.5,-268.142 736.5,-268.142"/>
</g>
<!-- 16 -->
<g id="node32" class="node"><title>16</title>
<polygon fill="none" stroke="black" points="1131,-258 857,-258 857,-196 1131,-196 1131,-258"/>
<text text-anchor="middle" x="994" y="-241.4" font-family="Times Roman,serif" font-size="14.00">entropy = 0.0000</text>
<text text-anchor="middle" x="994" y="-223.4" font-family="Times Roman,serif" font-size="14.00">samples = 13</text>
<text text-anchor="middle" x="994" y="-205.4" font-family="Times Roman,serif" font-size="14.00">value = [ &#160;0. &#160;&#160;0. &#160;&#160;0. &#160;13. &#160;&#160;0. &#160;&#160;0. &#160;&#160;0.]</text>
</g>
<!-- 10&#45;&gt;16 -->
<g id="edge32" class="edge"><title>10&#45;&gt;16</title>
<path fill="none" stroke="black" d="M815.582,-293.992C842.954,-283.714 873.593,-272.21 901.651,-261.675"/>
<polygon fill="black" stroke="black" points="902.928,-264.934 911.059,-258.142 900.467,-258.381 902.928,-264.934"/>
</g>
<!-- 12 -->
<g id="node24" class="node"><title>12</title>
<polygon fill="none" stroke="black" points="737,-160 499,-160 499,-98 737,-98 737,-160"/>
<text text-anchor="middle" x="618" y="-143.4" font-family="Times Roman,serif" font-size="14.00">entropy = 0.0000</text>
<text text-anchor="middle" x="618" y="-125.4" font-family="Times Roman,serif" font-size="14.00">samples = 4</text>
<text text-anchor="middle" x="618" y="-107.4" font-family="Times Roman,serif" font-size="14.00">value = [ 0. &#160;0. &#160;4. &#160;0. &#160;0. &#160;0. &#160;0.]</text>
</g>
<!-- 11&#45;&gt;12 -->
<g id="edge24" class="edge"><title>11&#45;&gt;12</title>
<path fill="none" stroke="black" d="M696.613,-195.992C685.706,-186.698 673.622,-176.4 662.267,-166.723"/>
<polygon fill="black" stroke="black" points="664.426,-163.965 654.545,-160.142 659.886,-169.293 664.426,-163.965"/>
</g>
<!-- 13 -->
<g id="node26" class="node"><title>13</title>
<polygon fill="none" stroke="black" points="967,-160 755,-160 755,-98 967,-98 967,-160"/>
<text text-anchor="middle" x="861" y="-143.4" font-family="Times Roman,serif" font-size="14.00">X[9] &lt;= 0.5000</text>
<text text-anchor="middle" x="861" y="-125.4" font-family="Times Roman,serif" font-size="14.00">entropy = 0.721928094887</text>
<text text-anchor="middle" x="861" y="-107.4" font-family="Times Roman,serif" font-size="14.00">samples = 5</text>
</g>
<!-- 11&#45;&gt;13 -->
<g id="edge26" class="edge"><title>11&#45;&gt;13</title>
<path fill="none" stroke="black" d="M773.5,-195.992C785.757,-186.608 799.349,-176.202 812.094,-166.444"/>
<polygon fill="black" stroke="black" points="814.512,-169.001 820.324,-160.142 810.256,-163.443 814.512,-169.001"/>
</g>
<!-- 14 -->
<g id="node28" class="node"><title>14</title>
<polygon fill="none" stroke="black" points="865,-62 627,-62 627,-3.19744e-14 865,-7.10543e-15 865,-62"/>
<text text-anchor="middle" x="746" y="-45.4" font-family="Times Roman,serif" font-size="14.00">entropy = 0.0000</text>
<text text-anchor="middle" x="746" y="-27.4" font-family="Times Roman,serif" font-size="14.00">samples = 1</text>
<text text-anchor="middle" x="746" y="-9.4" font-family="Times Roman,serif" font-size="14.00">value = [ 0. &#160;0. &#160;1. &#160;0. &#160;0. &#160;0. &#160;0.]</text>
</g>
<!-- 13&#45;&gt;14 -->
<g id="edge28" class="edge"><title>13&#45;&gt;14</title>
<path fill="none" stroke="black" d="M824.613,-97.9922C813.706,-88.6976 801.622,-78.4 790.267,-68.7229"/>
<polygon fill="black" stroke="black" points="792.426,-65.9646 782.545,-62.1425 787.886,-71.2925 792.426,-65.9646"/>
</g>
<!-- 15 -->
<g id="node30" class="node"><title>15</title>
<polygon fill="none" stroke="black" points="1121,-62 883,-62 883,-3.19744e-14 1121,-7.10543e-15 1121,-62"/>
<text text-anchor="middle" x="1002" y="-45.4" font-family="Times Roman,serif" font-size="14.00">entropy = 0.0000</text>
<text text-anchor="middle" x="1002" y="-27.4" font-family="Times Roman,serif" font-size="14.00">samples = 4</text>
<text text-anchor="middle" x="1002" y="-9.4" font-family="Times Roman,serif" font-size="14.00">value = [ 0. &#160;0. &#160;0. &#160;0. &#160;4. &#160;0. &#160;0.]</text>
</g>
<!-- 13&#45;&gt;15 -->
<g id="edge30" class="edge"><title>13&#45;&gt;15</title>
<path fill="none" stroke="black" d="M905.613,-97.9922C919.372,-88.4295 934.658,-77.8051 948.928,-67.8871"/>
<polygon fill="black" stroke="black" points="950.979,-70.7237 957.193,-62.1425 946.984,-64.9757 950.979,-70.7237"/>
</g>
</g>
</svg>
