<?xml version="1.0" encoding="UTF-8" standalone="no"?>
<!DOCTYPE svg PUBLIC "-//W3C//DTD SVG 1.1//EN"
 "http://www.w3.org/Graphics/SVG/1.1/DTD/svg11.dtd">
<!-- Generated by graphviz version 2.26.3 (20100126.1600)
 -->
<!-- Title: Tree Pages: 1 -->
<svg width="1216pt" height="756pt"
 viewBox="0.00 0.00 1216.00 756.00" xmlns="http://www.w3.org/2000/svg" xmlns:xlink="http://www.w3.org/1999/xlink">
<g id="graph1" class="graph" transform="scale(1 1) rotate(0) translate(4 752)">
<title>Tree</title>
<polygon fill="white" stroke="white" points="-4,5 -4,-752 1213,-752 1213,5 -4,5"/>
<!-- 0 -->
<g id="node1" class="node"><title>0</title>
<polygon fill="none" stroke="black" points="1053,-748 869,-748 869,-686 1053,-686 1053,-748"/>
<text text-anchor="middle" x="961" y="-731.4" font-family="Times Roman,serif" font-size="14.00">X[3] &lt;= 0.5000</text>
<text text-anchor="middle" x="961" y="-713.4" font-family="Times Roman,serif" font-size="14.00">gini = 0.759337319871</text>
<text text-anchor="middle" x="961" y="-695.4" font-family="Times Roman,serif" font-size="14.00">samples = 101</text>
</g>
<!-- 1 -->
<g id="node2" class="node"><title>1</title>
<polygon fill="none" stroke="black" points="916,-650 788,-650 788,-588 916,-588 916,-650"/>
<text text-anchor="middle" x="852" y="-633.4" font-family="Times Roman,serif" font-size="14.00">X[1] &lt;= 0.5000</text>
<text text-anchor="middle" x="852" y="-615.4" font-family="Times Roman,serif" font-size="14.00">gini = 0.785</text>
<text text-anchor="middle" x="852" y="-597.4" font-family="Times Roman,serif" font-size="14.00">samples = 60</text>
</g>
<!-- 0&#45;&gt;1 -->
<g id="edge2" class="edge"><title>0&#45;&gt;1</title>
<path fill="none" stroke="black" d="M926.512,-685.992C916.273,-676.787 904.941,-666.598 894.268,-657.002"/>
<polygon fill="black" stroke="black" points="896.414,-654.226 886.638,-650.142 891.734,-659.431 896.414,-654.226"/>
</g>
<!-- 18 -->
<g id="node36" class="node"><title>18</title>
<polygon fill="none" stroke="black" points="1208,-650 934,-650 934,-588 1208,-588 1208,-650"/>
<text text-anchor="middle" x="1071" y="-633.4" font-family="Times Roman,serif" font-size="14.00">gini = 0.0000</text>
<text text-anchor="middle" x="1071" y="-615.4" font-family="Times Roman,serif" font-size="14.00">samples = 41</text>
<text text-anchor="middle" x="1071" y="-597.4" font-family="Times Roman,serif" font-size="14.00">value = [ 41. &#160;&#160;0. &#160;&#160;0. &#160;&#160;0. &#160;&#160;0. &#160;&#160;0. &#160;&#160;0.]</text>
</g>
<!-- 0&#45;&gt;18 -->
<g id="edge36" class="edge"><title>0&#45;&gt;18</title>
<path fill="none" stroke="black" d="M995.805,-685.992C1006.14,-676.787 1017.57,-666.598 1028.34,-657.002"/>
<polygon fill="black" stroke="black" points="1030.91,-659.408 1036.04,-650.142 1026.25,-654.181 1030.91,-659.408"/>
</g>
<!-- 2 -->
<g id="node4" class="node"><title>2</title>
<polygon fill="none" stroke="black" points="809,-552 671,-552 671,-490 809,-490 809,-552"/>
<text text-anchor="middle" x="740" y="-535.4" font-family="Times Roman,serif" font-size="14.00">X[11] &lt;= 0.5000</text>
<text text-anchor="middle" x="740" y="-517.4" font-family="Times Roman,serif" font-size="14.00">gini = 0.76625</text>
<text text-anchor="middle" x="740" y="-499.4" font-family="Times Roman,serif" font-size="14.00">samples = 40</text>
</g>
<!-- 1&#45;&gt;2 -->
<g id="edge4" class="edge"><title>1&#45;&gt;2</title>
<path fill="none" stroke="black" d="M816.562,-587.992C806.042,-578.787 794.398,-568.598 783.431,-559.002"/>
<polygon fill="black" stroke="black" points="785.422,-556.094 775.591,-552.142 780.812,-561.362 785.422,-556.094"/>
</g>
<!-- 17 -->
<g id="node34" class="node"><title>17</title>
<polygon fill="none" stroke="black" points="1101,-552 827,-552 827,-490 1101,-490 1101,-552"/>
<text text-anchor="middle" x="964" y="-535.4" font-family="Times Roman,serif" font-size="14.00">gini = 0.0000</text>
<text text-anchor="middle" x="964" y="-517.4" font-family="Times Roman,serif" font-size="14.00">samples = 20</text>
<text text-anchor="middle" x="964" y="-499.4" font-family="Times Roman,serif" font-size="14.00">value = [ &#160;0. &#160;20. &#160;&#160;0. &#160;&#160;0. &#160;&#160;0. &#160;&#160;0. &#160;&#160;0.]</text>
</g>
<!-- 1&#45;&gt;17 -->
<g id="edge34" class="edge"><title>1&#45;&gt;17</title>
<path fill="none" stroke="black" d="M887.438,-587.992C897.958,-578.787 909.602,-568.598 920.569,-559.002"/>
<polygon fill="black" stroke="black" points="923.188,-561.362 928.409,-552.142 918.578,-556.094 923.188,-561.362"/>
</g>
<!-- 3 -->
<g id="node6" class="node"><title>3</title>
<polygon fill="none" stroke="black" points="709,-454 525,-454 525,-392 709,-392 709,-454"/>
<text text-anchor="middle" x="617" y="-437.4" font-family="Times Roman,serif" font-size="14.00">X[8] &lt;= 0.5000</text>
<text text-anchor="middle" x="617" y="-419.4" font-family="Times Roman,serif" font-size="14.00">gini = 0.718792866941</text>
<text text-anchor="middle" x="617" y="-401.4" font-family="Times Roman,serif" font-size="14.00">samples = 27</text>
</g>
<!-- 2&#45;&gt;3 -->
<g id="edge6" class="edge"><title>2&#45;&gt;3</title>
<path fill="none" stroke="black" d="M701.082,-489.992C689.304,-480.608 676.243,-470.202 663.996,-460.444"/>
<polygon fill="black" stroke="black" points="666.089,-457.637 656.087,-454.142 661.727,-463.111 666.089,-457.637"/>
</g>
<!-- 16 -->
<g id="node32" class="node"><title>16</title>
<polygon fill="none" stroke="black" points="1001,-454 727,-454 727,-392 1001,-392 1001,-454"/>
<text text-anchor="middle" x="864" y="-437.4" font-family="Times Roman,serif" font-size="14.00">gini = 0.0000</text>
<text text-anchor="middle" x="864" y="-419.4" font-family="Times Roman,serif" font-size="14.00">samples = 13</text>
<text text-anchor="middle" x="864" y="-401.4" font-family="Times Roman,serif" font-size="14.00">value = [ &#160;0. &#160;&#160;0. &#160;&#160;0. &#160;13. &#160;&#160;0. &#160;&#160;0. &#160;&#160;0.]</text>
</g>
<!-- 2&#45;&gt;16 -->
<g id="edge32" class="edge"><title>2&#45;&gt;16</title>
<path fill="none" stroke="black" d="M779.234,-489.992C791.108,-480.608 804.275,-470.202 816.622,-460.444"/>
<polygon fill="black" stroke="black" points="818.92,-463.089 824.595,-454.142 814.579,-457.597 818.92,-463.089"/>
</g>
<!-- 4 -->
<g id="node8" class="node"><title>4</title>
<polygon fill="none" stroke="black" points="581,-356 397,-356 397,-294 581,-294 581,-356"/>
<text text-anchor="middle" x="489" y="-339.4" font-family="Times Roman,serif" font-size="14.00">X[4] &lt;= 0.5000</text>
<text text-anchor="middle" x="489" y="-321.4" font-family="Times Roman,serif" font-size="14.00">gini = 0.493827160494</text>
<text text-anchor="middle" x="489" y="-303.4" font-family="Times Roman,serif" font-size="14.00">samples = 18</text>
</g>
<!-- 3&#45;&gt;4 -->
<g id="edge8" class="edge"><title>3&#45;&gt;4</title>
<path fill="none" stroke="black" d="M576.5,-391.992C564.243,-382.608 550.651,-372.202 537.906,-362.444"/>
<polygon fill="black" stroke="black" points="539.744,-359.443 529.676,-356.142 535.488,-365.001 539.744,-359.443"/>
</g>
<!-- 11 -->
<g id="node22" class="node"><title>11</title>
<polygon fill="none" stroke="black" points="837,-356 653,-356 653,-294 837,-294 837,-356"/>
<text text-anchor="middle" x="745" y="-339.4" font-family="Times Roman,serif" font-size="14.00">X[5] &lt;= 0.5000</text>
<text text-anchor="middle" x="745" y="-321.4" font-family="Times Roman,serif" font-size="14.00">gini = 0.493827160494</text>
<text text-anchor="middle" x="745" y="-303.4" font-family="Times Roman,serif" font-size="14.00">samples = 9</text>
</g>
<!-- 3&#45;&gt;11 -->
<g id="edge22" class="edge"><title>3&#45;&gt;11</title>
<path fill="none" stroke="black" d="M657.5,-391.992C669.757,-382.608 683.349,-372.202 696.094,-362.444"/>
<polygon fill="black" stroke="black" points="698.512,-365.001 704.324,-356.142 694.256,-359.443 698.512,-365.001"/>
</g>
<!-- 5 -->
<g id="node10" class="node"><title>5</title>
<polygon fill="none" stroke="black" points="352,-258 168,-258 168,-196 352,-196 352,-258"/>
<text text-anchor="middle" x="260" y="-241.4" font-family="Times Roman,serif" font-size="14.00">X[6] &lt;= 0.5000</text>
<text text-anchor="middle" x="260" y="-223.4" font-family="Times Roman,serif" font-size="14.00">gini = 0.277777777778</text>
<text text-anchor="middle" x="260" y="-205.4" font-family="Times Roman,serif" font-size="14.00">samples = 12</text>
</g>
<!-- 4&#45;&gt;5 -->
<g id="edge10" class="edge"><title>4&#45;&gt;5</title>
<path fill="none" stroke="black" d="M416.543,-293.992C392.84,-283.849 366.346,-272.51 341.991,-262.088"/>
<polygon fill="black" stroke="black" points="343.342,-258.859 332.772,-258.142 340.588,-265.295 343.342,-258.859"/>
</g>
<!-- 10 -->
<g id="node20" class="node"><title>10</title>
<polygon fill="none" stroke="black" points="608,-258 370,-258 370,-196 608,-196 608,-258"/>
<text text-anchor="middle" x="489" y="-241.4" font-family="Times Roman,serif" font-size="14.00">gini = 0.0000</text>
<text text-anchor="middle" x="489" y="-223.4" font-family="Times Roman,serif" font-size="14.00">samples = 6</text>
<text text-anchor="middle" x="489" y="-205.4" font-family="Times Roman,serif" font-size="14.00">value = [ 0. &#160;0. &#160;0. &#160;0. &#160;0. &#160;6. &#160;0.]</text>
</g>
<!-- 4&#45;&gt;10 -->
<g id="edge20" class="edge"><title>4&#45;&gt;10</title>
<path fill="none" stroke="black" d="M489,-293.992C489,-285.859 489,-276.959 489,-268.378"/>
<polygon fill="black" stroke="black" points="492.5,-268.142 489,-258.142 485.5,-268.142 492.5,-268.142"/>
</g>
<!-- 6 -->
<g id="node12" class="node"><title>6</title>
<polygon fill="none" stroke="black" points="316,-160 178,-160 178,-98 316,-98 316,-160"/>
<text text-anchor="middle" x="247" y="-143.4" font-family="Times Roman,serif" font-size="14.00">X[12] &lt;= 3.0000</text>
<text text-anchor="middle" x="247" y="-125.4" font-family="Times Roman,serif" font-size="14.00">gini = 0.5</text>
<text text-anchor="middle" x="247" y="-107.4" font-family="Times Roman,serif" font-size="14.00">samples = 4</text>
</g>
<!-- 5&#45;&gt;6 -->
<g id="edge12" class="edge"><title>5&#45;&gt;6</title>
<path fill="none" stroke="black" d="M255.887,-195.992C254.796,-187.77 253.601,-178.763 252.451,-170.095"/>
<polygon fill="black" stroke="black" points="255.916,-169.595 251.131,-160.142 248.977,-170.516 255.916,-169.595"/>
</g>
<!-- 9 -->
<g id="node18" class="node"><title>9</title>
<polygon fill="none" stroke="black" points="572,-160 334,-160 334,-98 572,-98 572,-160"/>
<text text-anchor="middle" x="453" y="-143.4" font-family="Times Roman,serif" font-size="14.00">gini = 0.0000</text>
<text text-anchor="middle" x="453" y="-125.4" font-family="Times Roman,serif" font-size="14.00">samples = 8</text>
<text text-anchor="middle" x="453" y="-107.4" font-family="Times Roman,serif" font-size="14.00">value = [ 0. &#160;0. &#160;0. &#160;0. &#160;0. &#160;0. &#160;8.]</text>
</g>
<!-- 5&#45;&gt;9 -->
<g id="edge18" class="edge"><title>5&#45;&gt;9</title>
<path fill="none" stroke="black" d="M321.066,-195.992C340.603,-186.072 362.39,-175.009 382.54,-164.778"/>
<polygon fill="black" stroke="black" points="384.337,-167.791 391.668,-160.142 381.167,-161.549 384.337,-167.791"/>
</g>
<!-- 7 -->
<g id="node14" class="node"><title>7</title>
<polygon fill="none" stroke="black" points="238,-62 1.13687e-13,-62 1.42109e-14,-3.19744e-14 238,-7.10543e-15 238,-62"/>
<text text-anchor="middle" x="119" y="-45.4" font-family="Times Roman,serif" font-size="14.00">gini = 0.0000</text>
<text text-anchor="middle" x="119" y="-27.4" font-family="Times Roman,serif" font-size="14.00">samples = 2</text>
<text text-anchor="middle" x="119" y="-9.4" font-family="Times Roman,serif" font-size="14.00">value = [ 0. &#160;0. &#160;0. &#160;0. &#160;0. &#160;0. &#160;2.]</text>
</g>
<!-- 6&#45;&gt;7 -->
<g id="edge14" class="edge"><title>6&#45;&gt;7</title>
<path fill="none" stroke="black" d="M206.5,-97.9922C194.243,-88.6082 180.651,-78.2019 167.906,-68.4439"/>
<polygon fill="black" stroke="black" points="169.744,-65.4426 159.676,-62.1425 165.488,-71.0006 169.744,-65.4426"/>
</g>
<!-- 8 -->
<g id="node16" class="node"><title>8</title>
<polygon fill="none" stroke="black" points="494,-62 256,-62 256,-3.19744e-14 494,-7.10543e-15 494,-62"/>
<text text-anchor="middle" x="375" y="-45.4" font-family="Times Roman,serif" font-size="14.00">gini = 0.0000</text>
<text text-anchor="middle" x="375" y="-27.4" font-family="Times Roman,serif" font-size="14.00">samples = 2</text>
<text text-anchor="middle" x="375" y="-9.4" font-family="Times Roman,serif" font-size="14.00">value = [ 0. &#160;0. &#160;0. &#160;0. &#160;0. &#160;2. &#160;0.]</text>
</g>
<!-- 6&#45;&gt;8 -->
<g id="edge16" class="edge"><title>6&#45;&gt;8</title>
<path fill="none" stroke="black" d="M287.5,-97.9922C299.757,-88.6082 313.349,-78.2019 326.094,-68.4439"/>
<polygon fill="black" stroke="black" points="328.512,-71.0006 334.324,-62.1425 324.256,-65.4426 328.512,-71.0006"/>
</g>
<!-- 12 -->
<g id="node24" class="node"><title>12</title>
<polygon fill="none" stroke="black" points="864,-258 626,-258 626,-196 864,-196 864,-258"/>
<text text-anchor="middle" x="745" y="-241.4" font-family="Times Roman,serif" font-size="14.00">gini = 0.0000</text>
<text text-anchor="middle" x="745" y="-223.4" font-family="Times Roman,serif" font-size="14.00">samples = 4</text>
<text text-anchor="middle" x="745" y="-205.4" font-family="Times Roman,serif" font-size="14.00">value = [ 0. &#160;0. &#160;4. &#160;0. &#160;0. &#160;0. &#160;0.]</text>
</g>
<!-- 11&#45;&gt;12 -->
<g id="edge24" class="edge"><title>11&#45;&gt;12</title>
<path fill="none" stroke="black" d="M745,-293.992C745,-285.859 745,-276.959 745,-268.378"/>
<polygon fill="black" stroke="black" points="748.5,-268.142 745,-258.142 741.5,-268.142 748.5,-268.142"/>
</g>
<!-- 13 -->
<g id="node26" class="node"><title>13</title>
<polygon fill="none" stroke="black" points="1020,-258 882,-258 882,-196 1020,-196 1020,-258"/>
<text text-anchor="middle" x="951" y="-241.4" font-family="Times Roman,serif" font-size="14.00">X[12] &lt;= 2.0000</text>
<text text-anchor="middle" x="951" y="-223.4" font-family="Times Roman,serif" font-size="14.00">gini = 0.32</text>
<text text-anchor="middle" x="951" y="-205.4" font-family="Times Roman,serif" font-size="14.00">samples = 5</text>
</g>
<!-- 11&#45;&gt;13 -->
<g id="edge26" class="edge"><title>11&#45;&gt;13</title>
<path fill="none" stroke="black" d="M810.18,-293.992C831.22,-283.983 854.706,-272.81 876.374,-262.501"/>
<polygon fill="black" stroke="black" points="878.011,-265.599 885.537,-258.142 875.003,-259.278 878.011,-265.599"/>
</g>
<!-- 14 -->
<g id="node28" class="node"><title>14</title>
<polygon fill="none" stroke="black" points="949,-160 711,-160 711,-98 949,-98 949,-160"/>
<text text-anchor="middle" x="830" y="-143.4" font-family="Times Roman,serif" font-size="14.00">gini = 0.0000</text>
<text text-anchor="middle" x="830" y="-125.4" font-family="Times Roman,serif" font-size="14.00">samples = 1</text>
<text text-anchor="middle" x="830" y="-107.4" font-family="Times Roman,serif" font-size="14.00">value = [ 0. &#160;0. &#160;1. &#160;0. &#160;0. &#160;0. &#160;0.]</text>
</g>
<!-- 13&#45;&gt;14 -->
<g id="edge28" class="edge"><title>13&#45;&gt;14</title>
<path fill="none" stroke="black" d="M912.715,-195.992C901.129,-186.608 888.28,-176.202 876.232,-166.444"/>
<polygon fill="black" stroke="black" points="878.425,-163.716 868.451,-160.142 874.02,-169.156 878.425,-163.716"/>
</g>
<!-- 15 -->
<g id="node30" class="node"><title>15</title>
<polygon fill="none" stroke="black" points="1205,-160 967,-160 967,-98 1205,-98 1205,-160"/>
<text text-anchor="middle" x="1086" y="-143.4" font-family="Times Roman,serif" font-size="14.00">gini = 0.0000</text>
<text text-anchor="middle" x="1086" y="-125.4" font-family="Times Roman,serif" font-size="14.00">samples = 4</text>
<text text-anchor="middle" x="1086" y="-107.4" font-family="Times Roman,serif" font-size="14.00">value = [ 0. &#160;0. &#160;0. &#160;0. &#160;4. &#160;0. &#160;0.]</text>
</g>
<!-- 13&#45;&gt;15 -->
<g id="edge30" class="edge"><title>13&#45;&gt;15</title>
<path fill="none" stroke="black" d="M993.715,-195.992C1006.76,-186.519 1021.25,-176.004 1034.8,-166.165"/>
<polygon fill="black" stroke="black" points="1037.06,-168.849 1043.1,-160.142 1032.95,-163.185 1037.06,-168.849"/>
</g>
</g>
</svg>
